<?xml version="1.0" encoding="utf-8"?>
<!-- Generator: Adobe Illustrator 16.0.0, SVG Export Plug-In . SVG Version: 6.00 Build 0)  -->
<!DOCTYPE svg PUBLIC "-//W3C//DTD SVG 1.1//EN" "http://www.w3.org/Graphics/SVG/1.1/DTD/svg11.dtd">
<svg version="1.1" id="Calque_1" xmlns="http://www.w3.org/2000/svg" xmlns:xlink="http://www.w3.org/1999/xlink" x="0px" y="0px"
	 width="666px" height="290px" viewBox="0 0 666 290" enable-background="new 0 0 666 290" xml:space="preserve">
<g>
	<path d="M24.253,283.85c-4.536-0.697-9.139-1.601-13.681-2.684l1.429-5.993c4.38,1.045,8.817,1.916,13.188,2.588L24.253,283.85z"/>
	<path d="M52.093,283.702l-0.134-6.159c8.94-0.194,17.9-1.202,26.631-2.996l1.239,6.035C70.735,282.45,61.404,283.5,52.093,283.702z
		 M106.555,272.538l-2.293-5.719c5.694-2.282,11.276-4.922,16.674-7.881c-3.777-0.88-7.522-1.825-11.216-2.832l1.621-5.944
		c8.614,2.349,17.514,4.356,26.452,5.967l-1.092,6.063c-2.275-0.41-4.548-0.846-6.814-1.305
		C122.45,265.393,114.61,269.308,106.555,272.538z M191.677,267.476c-9.262-0.151-18.544-0.666-27.589-1.528l0.584-6.132
		c8.885,0.846,18.005,1.352,27.106,1.501L191.677,267.476z M219.284,266.896l-0.355-6.15c8.925-0.515,18.027-1.364,27.051-2.523
		l0.785,6.11C237.598,265.51,228.353,266.373,219.284,266.896z M273.997,259.907l-1.188-6.045
		c8.791-1.729,17.707-3.778,26.502-6.093l1.568,5.957C291.959,256.075,282.915,258.154,273.997,259.907z M83.348,247.574
		c-9.052-3.555-17.386-7.985-24.771-13.172l3.54-5.042c6.985,4.905,14.886,9.104,23.482,12.479L83.348,247.574z M327.322,245.89
		l-1.929-5.851c8.541-2.816,17.147-5.939,25.58-9.283l2.271,5.726C344.7,239.872,335.979,243.037,327.322,245.89z M153.73,243.056
		l-4.182-4.524c3.9-3.604,7.295-7.203,10.093-10.695c2.575-3.215,5.025-6.449,7.282-9.611l5.014,3.579
		c-2.323,3.255-4.842,6.58-7.488,9.885C161.461,235.419,157.854,239.244,153.73,243.056z M378.571,225.571l-2.601-5.584
		c8.19-3.813,16.378-7.918,24.337-12.198l2.918,5.425C395.164,217.551,386.868,221.708,378.571,225.571z M38.023,215.12
		c-5.96-7.546-10.58-15.861-13.729-24.712l5.804-2.065c2.925,8.217,7.218,15.942,12.76,22.959L38.023,215.12z M427.129,199.451
		l-3.227-5.248c7.721-4.75,15.379-9.775,22.761-14.938l3.531,5.048C442.713,189.545,434.953,194.639,427.129,199.451z
		 M186.292,197.886l-5.552-2.67c4.15-8.627,6.967-17.075,8.374-25.11l6.068,1.063C193.677,179.76,190.686,188.75,186.292,197.886z
		 M25.602,162.518h-6.161v-0.142c0-9.496,1.61-18.836,4.789-27.761l5.804,2.067c-2.941,8.258-4.432,16.903-4.432,25.693V162.518z
		 M188.66,144.118c-1.87-8.21-5.506-16.17-10.809-23.658l5.027-3.56c5.772,8.15,9.738,16.847,11.789,25.85L188.66,144.118z
		 M42.768,113.671l-4.86-3.786c5.827-7.479,12.727-14.003,20.509-19.391l3.507,5.065C54.656,100.591,48.211,106.685,42.768,113.671z
		 M159.583,101.282c-0.859-0.705-1.739-1.407-2.638-2.106c-6.321-4.917-12.99-8.899-19.825-11.835l2.432-5.661
		c7.316,3.144,14.44,7.394,21.174,12.632c0.927,0.72,1.856,1.463,2.764,2.206L159.583,101.282z M85.625,84.163l-1.737-5.911
		c7.594-2.231,15.385-3.363,23.157-3.363c1.662,0.001,3.337,0.053,4.982,0.155l-0.382,6.148c-1.519-0.094-3.067-0.142-4.601-0.143
		C99.86,81.05,92.654,82.098,85.625,84.163z"/>
	<path d="M472.39,167.765l-3.831-4.824c3.555-2.824,7.091-5.724,10.508-8.619l3.982,4.702
		C479.582,161.96,475.996,164.901,472.39,167.765z"/>
</g>
<g>
	<path d="M243.824,12.422h-15.198V4.618h38.883v7.804h-15.197v40.116h-8.488V12.422z"/>
	<path d="M281.197,4.618h8.42V24.54h22.865V4.618h8.42v47.92h-8.42V32.343h-22.865v20.195h-8.42V4.618z"/>
	<path d="M338.013,4.618h35.528v7.53h-27.108v12.459h24.028v7.53h-24.028v12.87h27.451v7.531h-35.871V4.618z"/>
	<path d="M402.288,28.715v-0.137c0-13.417,10.269-24.782,24.712-24.782c8.353,0,13.486,2.328,18.416,6.503l-5.34,6.366
		c-3.697-3.148-7.324-5.134-13.418-5.134c-8.831,0-15.54,7.735-15.54,16.908v0.138c0,9.857,6.504,17.114,16.293,17.114
		c4.518,0,8.625-1.438,11.568-3.628v-8.968h-12.254v-7.325h20.4v20.127c-4.723,4.039-11.5,7.461-19.988,7.461
		C412.146,53.359,402.288,42.68,402.288,28.715z"/>
	<path d="M462.869,4.618h21.357c6.024,0,10.748,1.78,13.828,4.792c2.533,2.601,3.971,6.161,3.971,10.337v0.137
		c0,7.872-4.724,12.596-11.433,14.513l12.938,18.141h-9.926L481.83,35.834h-10.541v16.704h-8.42V4.618z M483.61,28.373
		c6.024,0,9.857-3.149,9.857-8.01v-0.137c0-5.134-3.696-7.941-9.926-7.941h-12.253v16.088H483.61z"/>
	<path d="M517.15,4.618h35.528v7.53H525.57v12.459h24.028v7.53H525.57v12.87h27.451v7.531H517.15V4.618z"/>
	<path d="M584.782,4.276h7.804l21.085,48.262h-8.899l-4.86-11.569h-22.659l-4.929,11.569h-8.626L584.782,4.276z M596.831,33.506
		l-8.283-19.167l-8.216,19.167H596.831z"/>
	<path d="M632.287,12.422H617.09V4.618h38.883v7.804h-15.197v40.116h-8.488V12.422z"/>
	<path d="M232.049,73.07h35.529v7.53h-27.108V93.06h24.028v7.53h-24.028v12.87h27.451v7.53h-35.871V73.07z"/>
	<path d="M279.486,114.007l5.065-6.024c4.587,3.971,9.174,6.23,15.129,6.23c5.203,0,8.488-2.396,8.488-6.024v-0.138
		c0-3.423-1.916-5.271-10.816-7.324c-10.2-2.465-15.95-5.478-15.95-14.308v-0.137c0-8.215,6.845-13.897,16.361-13.897
		c6.982,0,12.528,2.123,17.388,6.024l-4.518,6.366c-4.313-3.217-8.626-4.928-13.007-4.928c-4.929,0-7.804,2.532-7.804,5.681v0.137
		c0,3.697,2.19,5.34,11.363,7.53c10.132,2.465,15.402,6.092,15.402,14.034v0.136c0,8.968-7.05,14.308-17.114,14.308
		C292.151,121.675,285.236,119.141,279.486,114.007z"/>
	<path d="M329.183,97.167v-0.136c0-13.624,10.2-24.782,24.713-24.782c8.831,0,14.17,3.081,18.757,7.462l-5.408,6.23
		c-3.834-3.56-7.941-5.956-13.418-5.956c-9.173,0-15.813,7.53-15.813,16.909v0.138c0,9.378,6.64,17.045,15.813,17.045
		c5.887,0,9.652-2.396,13.76-6.229l5.408,5.476c-4.997,5.203-10.474,8.488-19.441,8.488
		C339.587,121.811,329.183,110.927,329.183,97.167z"/>
	<path d="M403.591,72.728h7.804l21.084,48.262h-8.899l-4.861-11.569h-22.659l-4.929,11.569h-8.625L403.591,72.728z M415.639,101.958
		l-8.283-19.167l-8.215,19.167H415.639z"/>
	<path d="M445.482,73.07h18.895c11.158,0,18.209,6.367,18.209,16.019v0.137c0,10.748-8.625,16.361-19.168,16.361h-9.516v15.403
		h-8.42V73.07z M463.691,97.989c6.367,0,10.338-3.56,10.338-8.558v-0.136c0-5.614-4.039-8.558-10.338-8.558h-9.789v17.251H463.691z"
		/>
	<path d="M496,73.07h35.528v7.53h-27.107V93.06h24.027v7.53h-24.027v12.87h27.45v7.53H496V73.07z"/>
</g>
</svg>
